<mxfile host="65bd71144e">
    <diagram id="1GbyyeS9RTUB4qsZgK6q" name="Page-1">
        <mxGraphModel dx="1185" dy="898" grid="1" gridSize="10" guides="1" tooltips="1" connect="1" arrows="1" fold="1" page="1" pageScale="1" pageWidth="827" pageHeight="1169" math="0" shadow="0">
            <root>
                <mxCell id="0"/>
                <mxCell id="1" parent="0"/>
                <mxCell id="74" value="VPC" style="points=[[0,0],[0.25,0],[0.5,0],[0.75,0],[1,0],[1,0.25],[1,0.5],[1,0.75],[1,1],[0.75,1],[0.5,1],[0.25,1],[0,1],[0,0.75],[0,0.5],[0,0.25]];outlineConnect=0;gradientColor=none;html=1;whiteSpace=wrap;fontSize=17;fontStyle=0;container=1;pointerEvents=0;collapsible=0;recursiveResize=0;shape=mxgraph.aws4.group;grIcon=mxgraph.aws4.group_vpc;strokeColor=#248814;fillColor=none;verticalAlign=top;align=left;spacingLeft=30;fontColor=#4D4D4D;dashed=0;strokeWidth=2;" vertex="1" parent="1">
                    <mxGeometry x="50" y="40" width="730" height="550" as="geometry"/>
                </mxCell>
                <mxCell id="75" value="ECS Cluster" style="points=[[0,0],[0.25,0],[0.5,0],[0.75,0],[1,0],[1,0.25],[1,0.5],[1,0.75],[1,1],[0.75,1],[0.5,1],[0.25,1],[0,1],[0,0.75],[0,0.5],[0,0.25]];outlineConnect=0;gradientColor=none;html=1;whiteSpace=wrap;fontSize=17;fontStyle=0;container=1;pointerEvents=0;collapsible=0;recursiveResize=0;shape=mxgraph.aws4.group;grIcon=mxgraph.aws4.group_elastic_beanstalk;strokeColor=#D86613;fillColor=none;verticalAlign=top;align=left;spacingLeft=30;fontColor=#D86613;dashed=0;strokeWidth=2;" vertex="1" parent="74">
                    <mxGeometry x="35" y="50" width="665" height="340" as="geometry"/>
                </mxCell>
                <mxCell id="76" style="edgeStyle=orthogonalEdgeStyle;html=1;exitX=1;exitY=0.5;exitDx=0;exitDy=0;entryX=0.5;entryY=1;entryDx=0;entryDy=0;startArrow=none;startFill=0;strokeWidth=2;" edge="1" parent="75" source="77" target="78">
                    <mxGeometry relative="1" as="geometry"/>
                </mxCell>
                <mxCell id="77" value="Data&lt;br style=&quot;font-size: 16px&quot;&gt;Intake Queue" style="rounded=1;whiteSpace=wrap;html=1;fontSize=16;strokeWidth=2;" vertex="1" parent="75">
                    <mxGeometry x="195" y="260" width="130" height="60" as="geometry"/>
                </mxCell>
                <mxCell id="78" value="Backend&lt;br&gt;Load Balancer" style="rounded=1;whiteSpace=wrap;html=1;fontSize=16;strokeWidth=2;" vertex="1" parent="75">
                    <mxGeometry x="283" y="160" width="130" height="60" as="geometry"/>
                </mxCell>
                <mxCell id="79" style="edgeStyle=orthogonalEdgeStyle;html=1;exitX=1;exitY=0.5;exitDx=0;exitDy=0;entryX=0;entryY=0.5;entryDx=0;entryDy=0;startArrow=none;startFill=0;strokeWidth=2;" edge="1" parent="75" source="80" target="85">
                    <mxGeometry relative="1" as="geometry"/>
                </mxCell>
                <mxCell id="80" value="Backend&lt;br&gt;API" style="rounded=1;whiteSpace=wrap;html=1;fontSize=16;strokeWidth=2;" vertex="1" parent="75">
                    <mxGeometry x="283" y="55" width="130" height="60" as="geometry"/>
                </mxCell>
                <mxCell id="81" style="edgeStyle=orthogonalEdgeStyle;html=1;exitX=0.5;exitY=0;exitDx=0;exitDy=0;entryX=0.5;entryY=1;entryDx=0;entryDy=0;startArrow=classic;startFill=1;strokeWidth=2;" edge="1" parent="75" source="78" target="80">
                    <mxGeometry relative="1" as="geometry"/>
                </mxCell>
                <mxCell id="82" style="edgeStyle=orthogonalEdgeStyle;html=1;exitX=0;exitY=0.5;exitDx=0;exitDy=0;entryX=1;entryY=0.5;entryDx=0;entryDy=0;startArrow=none;startFill=0;strokeWidth=2;" edge="1" parent="75" source="83" target="78">
                    <mxGeometry relative="1" as="geometry"/>
                </mxCell>
                <mxCell id="83" value="Worker" style="rounded=1;whiteSpace=wrap;html=1;fontSize=16;strokeWidth=2;" vertex="1" parent="75">
                    <mxGeometry x="505" y="160" width="130" height="60" as="geometry"/>
                </mxCell>
                <mxCell id="84" style="edgeStyle=orthogonalEdgeStyle;html=1;exitX=0.5;exitY=1;exitDx=0;exitDy=0;entryX=0.5;entryY=0;entryDx=0;entryDy=0;startArrow=none;startFill=0;strokeWidth=2;" edge="1" parent="75" source="85" target="83">
                    <mxGeometry relative="1" as="geometry"/>
                </mxCell>
                <mxCell id="85" value="Task&lt;br&gt;Queue" style="rounded=1;whiteSpace=wrap;html=1;fontSize=16;strokeWidth=2;" vertex="1" parent="75">
                    <mxGeometry x="505" y="55" width="130" height="60" as="geometry"/>
                </mxCell>
                <mxCell id="86" value="SQL&lt;br&gt;Database" style="shape=datastore;whiteSpace=wrap;html=1;fontSize=16;strokeWidth=2;" vertex="1" parent="75">
                    <mxGeometry x="35" y="40" width="100" height="90" as="geometry"/>
                </mxCell>
                <mxCell id="87" style="edgeStyle=orthogonalEdgeStyle;html=1;exitX=1;exitY=0.5;exitDx=0;exitDy=0;entryX=0;entryY=0.25;entryDx=0;entryDy=0;fontSize=16;startArrow=classic;startFill=1;strokeWidth=2;" edge="1" parent="75" source="86" target="80">
                    <mxGeometry relative="1" as="geometry"/>
                </mxCell>
                <mxCell id="88" value="Timeseries&lt;br&gt;Database" style="shape=datastore;whiteSpace=wrap;html=1;fontSize=16;strokeWidth=2;" vertex="1" parent="75">
                    <mxGeometry x="35" y="140" width="100" height="90" as="geometry"/>
                </mxCell>
                <mxCell id="89" style="edgeStyle=orthogonalEdgeStyle;html=1;exitX=1;exitY=0.5;exitDx=0;exitDy=0;entryX=0;entryY=0.75;entryDx=0;entryDy=0;fontSize=16;startArrow=classic;startFill=1;strokeWidth=2;" edge="1" parent="75" source="88" target="80">
                    <mxGeometry relative="1" as="geometry"/>
                </mxCell>
                <mxCell id="90" value="Data&lt;br style=&quot;font-size: 16px;&quot;&gt;Intake" style="rounded=1;whiteSpace=wrap;html=1;fontSize=16;strokeWidth=2;" vertex="1" parent="75">
                    <mxGeometry x="20" y="260" width="130" height="60" as="geometry"/>
                </mxCell>
                <mxCell id="91" style="edgeStyle=orthogonalEdgeStyle;html=1;exitX=1;exitY=0.5;exitDx=0;exitDy=0;entryX=0;entryY=0.5;entryDx=0;entryDy=0;startArrow=none;startFill=0;strokeWidth=2;" edge="1" parent="75" source="90" target="77">
                    <mxGeometry relative="1" as="geometry"/>
                </mxCell>
                <mxCell id="94" value="External Connection EC2 Instance" style="points=[[0,0],[0.25,0],[0.5,0],[0.75,0],[1,0],[1,0.25],[1,0.5],[1,0.75],[1,1],[0.75,1],[0.5,1],[0.25,1],[0,1],[0,0.75],[0,0.5],[0,0.25]];outlineConnect=0;gradientColor=none;html=1;whiteSpace=wrap;fontSize=16;fontStyle=0;container=1;pointerEvents=0;collapsible=0;recursiveResize=0;shape=mxgraph.aws4.group;grIcon=mxgraph.aws4.group_ec2_instance_contents;strokeColor=#D86613;fillColor=none;verticalAlign=middle;align=center;spacingLeft=30;fontColor=#D86613;dashed=0;strokeWidth=2;labelPosition=center;verticalLabelPosition=middle;spacingBottom=-100;" vertex="1" parent="74">
                    <mxGeometry x="35" y="400" width="425" height="130" as="geometry"/>
                </mxCell>
                <mxCell id="116" value="" style="edgeStyle=orthogonalEdgeStyle;html=1;fontSize=16;startArrow=classic;startFill=1;strokeWidth=2;" edge="1" parent="94" source="95" target="96">
                    <mxGeometry relative="1" as="geometry"/>
                </mxCell>
                <mxCell id="95" value="DNS&lt;br&gt;Service" style="rounded=1;whiteSpace=wrap;html=1;fontSize=16;strokeWidth=2;" vertex="1" parent="94">
                    <mxGeometry x="235" y="35" width="130" height="60" as="geometry"/>
                </mxCell>
                <mxCell id="96" value="VPN&lt;br&gt;Service" style="rounded=1;whiteSpace=wrap;html=1;fontSize=16;strokeWidth=2;" vertex="1" parent="94">
                    <mxGeometry x="25" y="35" width="130" height="60" as="geometry"/>
                </mxCell>
                <mxCell id="115" style="edgeStyle=orthogonalEdgeStyle;html=1;exitX=0.5;exitY=0;exitDx=0;exitDy=0;entryX=0.631;entryY=1;entryDx=0;entryDy=0;entryPerimeter=0;fontSize=16;startArrow=classic;startFill=1;strokeWidth=2;" edge="1" parent="74" source="96" target="78">
                    <mxGeometry relative="1" as="geometry">
                        <Array as="points">
                            <mxPoint x="125" y="410"/>
                            <mxPoint x="400" y="410"/>
                        </Array>
                    </mxGeometry>
                </mxCell>
                <mxCell id="117" value="Service&lt;br&gt;Discovery&lt;br&gt;Service" style="rounded=1;whiteSpace=wrap;html=1;fontSize=16;strokeWidth=2;" vertex="1" parent="74">
                    <mxGeometry x="530" y="432.5" width="140" height="65" as="geometry"/>
                </mxCell>
                <mxCell id="118" style="edgeStyle=orthogonalEdgeStyle;html=1;exitX=1;exitY=0.5;exitDx=0;exitDy=0;entryX=0;entryY=0.5;entryDx=0;entryDy=0;fontSize=16;startArrow=classic;startFill=1;strokeWidth=2;" edge="1" parent="74" source="95" target="117">
                    <mxGeometry relative="1" as="geometry"/>
                </mxCell>
                <mxCell id="92" value="Data&lt;br&gt;Visualization" style="rounded=1;whiteSpace=wrap;html=1;fontSize=16;strokeWidth=2;" vertex="1" parent="1">
                    <mxGeometry x="590" y="350" width="130" height="60" as="geometry"/>
                </mxCell>
                <mxCell id="93" style="edgeStyle=orthogonalEdgeStyle;html=1;exitX=0.75;exitY=1;exitDx=0;exitDy=0;entryX=0;entryY=0.5;entryDx=0;entryDy=0;startArrow=classic;startFill=1;strokeWidth=2;" edge="1" parent="1" source="78" target="92">
                    <mxGeometry relative="1" as="geometry"/>
                </mxCell>
                <mxCell id="105" value="Developers' Computer" style="points=[[0,0],[0.25,0],[0.5,0],[0.75,0],[1,0],[1,0.25],[1,0.5],[1,0.75],[1,1],[0.75,1],[0.5,1],[0.25,1],[0,1],[0,0.75],[0,0.5],[0,0.25]];outlineConnect=0;gradientColor=none;html=1;whiteSpace=wrap;fontSize=16;fontStyle=0;container=1;pointerEvents=0;collapsible=0;recursiveResize=0;shape=mxgraph.aws4.group;grIcon=mxgraph.aws4.group_on_premise;strokeColor=#5A6C86;fillColor=none;verticalAlign=top;align=left;spacingLeft=30;fontColor=#5A6C86;dashed=0;strokeWidth=2;" vertex="1" parent="1">
                    <mxGeometry x="50" y="672" width="730" height="120" as="geometry"/>
                </mxCell>
                <mxCell id="106" value="VPN&lt;br&gt;Client" style="rounded=1;whiteSpace=wrap;html=1;fontSize=16;strokeWidth=2;" vertex="1" parent="105">
                    <mxGeometry x="290" y="38" width="130" height="60" as="geometry"/>
                </mxCell>
                <mxCell id="109" style="edgeStyle=none;html=1;exitX=1;exitY=0.5;exitDx=0;exitDy=0;entryX=0;entryY=0.5;entryDx=0;entryDy=0;fontSize=16;startArrow=classic;startFill=1;strokeWidth=2;" edge="1" parent="105" source="108" target="106">
                    <mxGeometry relative="1" as="geometry"/>
                </mxCell>
                <mxCell id="108" value="Data&lt;br&gt;Visualization" style="rounded=1;whiteSpace=wrap;html=1;fontSize=16;strokeWidth=2;" vertex="1" parent="105">
                    <mxGeometry x="60" y="38" width="130" height="60" as="geometry"/>
                </mxCell>
                <mxCell id="113" style="edgeStyle=orthogonalEdgeStyle;html=1;entryX=0.5;entryY=1;entryDx=0;entryDy=0;fontSize=16;startArrow=classic;startFill=1;strokeWidth=2;" edge="1" parent="1" source="111" target="96">
                    <mxGeometry relative="1" as="geometry"/>
                </mxCell>
                <mxCell id="114" value="" style="edgeStyle=orthogonalEdgeStyle;html=1;fontSize=16;startArrow=classic;startFill=1;strokeWidth=2;" edge="1" parent="1" source="111" target="106">
                    <mxGeometry relative="1" as="geometry"/>
                </mxCell>
                <mxCell id="111" value="Internet" style="sketch=0;outlineConnect=0;fontColor=#232F3E;gradientColor=none;fillColor=#232F3D;strokeColor=none;dashed=0;verticalLabelPosition=middle;verticalAlign=middle;align=right;html=1;fontSize=16;fontStyle=0;aspect=fixed;pointerEvents=1;shape=mxgraph.aws4.internet;labelPosition=left;spacing=4;perimeterSpacing=5;" vertex="1" parent="1">
                    <mxGeometry x="136" y="610" width="78" height="48" as="geometry"/>
                </mxCell>
            </root>
        </mxGraphModel>
    </diagram>
</mxfile>